<svg xmlns="http://www.w3.org/2000/svg" version="1.1" xmlns:xlink="http://www.w3.org/1999/xlink" xmlns:svgjs="http://svgjs.dev/svgjs" width="1500" height="1500" viewBox="0 0 1500 1500"><rect width="1500" height="1500" fill="#ffffff"></rect><g transform="matrix(0.6666666666666666,0,0,0.6666666666666666,249.78425655976667,249.78425655976673)"><svg viewBox="0 0 343 343" data-background-color="#ffffff" preserveAspectRatio="xMidYMid meet" height="1500" width="1500" xmlns="http://www.w3.org/2000/svg" xmlns:xlink="http://www.w3.org/1999/xlink"><g id="tight-bounds" transform="matrix(1,0,0,1,0.0740000000000407,0.07400000000001228)"><svg viewBox="0 0 342.85155851775386 342.85155851775386" height="342.85155851775386" width="342.85155851775386"><g><svg></svg></g><g><svg viewBox="0 0 342.85155851775386 342.85155851775386" height="342.85155851775386" width="342.85155851775386"><g><path d="M0 171.426c0-94.676 76.75-171.426 171.426-171.426 94.676 0 171.426 76.75 171.426 171.426 0 94.676-76.75 171.426-171.426 171.426-94.676 0-171.426-76.75-171.426-171.426zM171.426 340.889c93.592 0 169.463-75.871 169.463-169.463 0-93.592-75.871-169.463-169.463-169.463-93.592 0-169.463 75.871-169.463 169.463 0 93.592 75.871 169.463 169.463 169.463z" data-fill-palette-color="tertiary" fill="#000000" stroke="transparent"></path><ellipse rx="164.56874808852186" ry="164.56874808852186" cx="171.42577925887693" cy="171.42577925887693" fill="#000000" stroke="transparent" stroke-width="0" fill-opacity="1" data-fill-palette-color="tertiary"></ellipse></g><g transform="matrix(1,0,0,1,64.84655864529837,151.98944656734005)"><svg viewBox="0 0 213.1584412271571 38.87266538307374" height="38.87266538307374" width="213.1584412271571"><g><svg viewBox="0 0 213.1584412271571 38.87266538307374" height="38.87266538307374" width="213.1584412271571"><g><svg viewBox="0 0 213.1584412271571 38.87266538307374" height="38.87266538307374" width="213.1584412271571"><g><svg viewBox="0 0 213.1584412271571 38.87266538307374" height="38.87266538307374" width="213.1584412271571"><g id="textblocktransform"><svg viewBox="0 0 213.1584412271571 38.87266538307374" height="38.87266538307374" width="213.1584412271571" id="textblock"><g><svg viewBox="0 0 213.1584412271571 21.764284041145917" height="21.764284041145917" width="213.1584412271571"><g transform="matrix(1,0,0,1,0,0)"><svg width="213.1584412271571" viewBox="6.5 -35.7 356.47 36.400000000000006" height="21.764284041145917" data-palette-color="#ffffff"><path d="M6.5 0L6.5-35 9.9-35 9.9-1Q10.85-1 12.9-1.3L12.9-1.3 21.2-2.55 21.2 0 6.5 0ZM44.95 0L29.55 0 29.55-35 44.8-35 44.8-32.55 36.05-33.7Q33.75-34 32.95-34L32.95-34 32.95-18.75Q33.6-18.75 36.05-18.9L36.05-18.9 44.25-19.4 44.25-17.1 36.05-17.6Q33.6-17.75 32.95-17.75L32.95-17.75 32.95-1Q33.85-1 36.1-1.3L36.1-1.3 44.95-2.45 44.95 0ZM53.9 0L50.25 0 63.7-35 66.8-35 80.25 0 76.6 0 70.4-16.4 59.05-16.4 53.9 0ZM64.35-32.4L64.05-32.4 59.4-17.6 69.95-17.6 64.35-32.4ZM91.74 0L88.34 0 88.34-35 94.59-35Q100.64-35 103.99-32.43 107.34-29.85 107.34-25.25L107.34-25.25Q107.34-20.65 103.99-18.07 100.64-15.5 94.59-15.5L94.59-15.5 91.74-15.5 91.74 0ZM94.59-33.8L94.59-33.8 91.74-33.8 91.74-16.7 94.59-16.7Q103.74-16.7 103.74-25.25L103.74-25.25Q103.74-33.8 94.59-33.8ZM133.74 0L130.34 0 130.34-35 133.74-35 133.74 0ZM149.39 0L145.99 0 147.24-35.7 147.84-35.7 172.99-5.3 173.29-5.3 172.19-35 175.59-35 174.34 0.7 173.74 0.7 148.59-29.7 148.29-29.7 149.39 0ZM184.78-1.1L184.78-1.1 185.08-4.1 185.38-4.1Q187.33-2.4 189.78-1.45 192.23-0.5 194.63-0.5L194.63-0.5Q198.03-0.5 200.13-2.38 202.23-4.25 202.23-7.4L202.23-7.4Q202.23-9.15 201.46-10.65 200.68-12.15 198.91-13.7 197.13-15.25 194.03-17.05L194.03-17.05Q191.88-18.3 189.93-19.68 187.98-21.05 186.73-22.88 185.48-24.7 185.48-27.25L185.48-27.25Q185.48-31.05 188.23-33.38 190.98-35.7 195.48-35.7L195.48-35.7Q197.48-35.7 199.78-35.27 202.08-34.85 203.33-34.2L203.33-34.2 203.08-31.4 202.78-31.4Q199.93-34.5 195.48-34.5L195.48-34.5Q192.28-34.5 190.33-32.88 188.38-31.25 188.38-28.5L188.38-28.5Q188.38-26.45 189.46-24.98 190.53-23.5 192.23-22.33 193.93-21.15 195.88-20.05L195.88-20.05Q198.13-18.75 200.26-17.3 202.38-15.85 203.76-13.83 205.13-11.8 205.13-8.75L205.13-8.75Q205.13-5.95 203.83-3.83 202.53-1.7 200.16-0.5 197.78 0.7 194.63 0.7L194.63 0.7Q192.63 0.7 189.93 0.2 187.23-0.3 184.78-1.1ZM218.38 0L214.98 0 214.98-35 218.38-35 218.38 0ZM258.08-16.6L248.83-16.6 248.83-17.8 261.48-17.8 261.48-4.2Q259.18-1.9 255.85-0.6 252.53 0.7 248.43 0.7L248.43 0.7Q244.23 0.7 240.68-0.68 237.13-2.05 234.48-4.53 231.83-7 230.35-10.3 228.88-13.6 228.88-17.5L228.88-17.5Q228.88-21.4 230.35-24.7 231.83-28 234.48-30.48 237.13-32.95 240.68-34.33 244.23-35.7 248.43-35.7L248.43-35.7Q250.23-35.7 252.35-35.45 254.48-35.2 256.43-34.77 258.38-34.35 259.73-33.75L259.73-33.75 259.48-30.95 259.18-30.95Q257.18-32.7 254.38-33.6 251.58-34.5 248.43-34.5L248.43-34.5Q243.73-34.5 240.18-32.38 236.63-30.25 234.65-26.43 232.68-22.6 232.68-17.5L232.68-17.5Q232.68-12.4 234.65-8.58 236.63-4.75 240.18-2.63 243.73-0.5 248.43-0.5L248.43-0.5Q251.33-0.5 253.8-1.3 256.28-2.1 258.08-3.6L258.08-3.6 258.08-16.6ZM276.38 0L272.98 0 272.98-35 276.38-35 276.38-18.8 297.38-18.8 297.38-35 300.78-35 300.78 0 297.38 0 297.38-17.6 276.38-17.6 276.38 0ZM325.17 0L321.77 0 321.77-34Q321.02-34 318.67-33.7L318.67-33.7 308.87-32.45 308.87-35 338.07-35 338.07-32.45 328.27-33.7Q325.92-34 325.17-34L325.17-34 325.17 0ZM342.62-1.1L342.62-1.1 342.92-4.1 343.22-4.1Q345.17-2.4 347.62-1.45 350.07-0.5 352.47-0.5L352.47-0.5Q355.87-0.5 357.97-2.38 360.07-4.25 360.07-7.4L360.07-7.4Q360.07-9.15 359.3-10.65 358.52-12.15 356.75-13.7 354.97-15.25 351.87-17.05L351.87-17.05Q349.72-18.3 347.77-19.68 345.82-21.05 344.57-22.88 343.32-24.7 343.32-27.25L343.32-27.25Q343.32-31.05 346.07-33.38 348.82-35.7 353.32-35.7L353.32-35.7Q355.32-35.7 357.62-35.27 359.92-34.85 361.17-34.2L361.17-34.2 360.92-31.4 360.62-31.4Q357.77-34.5 353.32-34.5L353.32-34.5Q350.12-34.5 348.17-32.88 346.22-31.25 346.22-28.5L346.22-28.5Q346.22-26.45 347.3-24.98 348.37-23.5 350.07-22.33 351.77-21.15 353.72-20.05L353.72-20.05Q355.97-18.75 358.1-17.3 360.22-15.85 361.6-13.83 362.97-11.8 362.97-8.75L362.97-8.75Q362.97-5.95 361.67-3.83 360.37-1.7 358-0.5 355.62 0.7 352.47 0.7L352.47 0.7Q350.47 0.7 347.77 0.2 345.07-0.3 342.62-1.1Z" opacity="1" transform="matrix(1,0,0,1,0,0)" fill="#ffffff" class="wordmark-text-0" data-fill-palette-color="quaternary" id="text-0"></path></svg></g></svg></g><g transform="matrix(1,0,0,1,0,26.90230916044348)"><svg viewBox="0 0 213.1584412271571 11.970356222630254" height="11.970356222630254" width="213.1584412271571"><g transform="matrix(1,0,0,1,0,0)"><svg width="213.1584412271571" viewBox="6.5 -35.7 648.18 36.400000000000006" height="11.970356222630254" data-palette-color="#ffffff"><path d="M6.5 0L6.5-35 9.9-35 9.9-1Q10.85-1 12.9-1.3L12.9-1.3 21.2-2.55 21.2 0 6.5 0ZM30.05 0L26.4 0 39.85-35 42.95-35 56.4 0 52.75 0 46.55-16.4 35.2-16.4 30.05 0ZM40.5-32.4L40.2-32.4 35.55-17.6 46.1-17.6 40.5-32.4ZM73.3 0.7L58.9-35 62.55-35 74.8-4.4 75.1-4.4 83.1-24.2 78.75-35 82.4-35 94.6-4.5 94.9-4.5 105-35 108.65-35 94.25 0.7 93.15 0.7 83.8-22.55 74.4 0.7 73.3 0.7ZM147.45 0L132.05 0 132.05-35 147.3-35 147.3-32.55 138.55-33.7Q136.25-34 135.45-34L135.45-34 135.45-18.75Q136.1-18.75 138.55-18.9L138.55-18.9 146.75-19.4 146.75-17.1 138.55-17.6Q136.1-17.75 135.45-17.75L135.45-17.75 135.45-1Q136.35-1 138.6-1.3L138.6-1.3 147.45-2.45 147.45 0ZM186.6-4.3L186.9-4.3 186.6-1.25Q185.2-0.65 183.2-0.2 181.2 0.25 179.15 0.48 177.1 0.7 175.5 0.7L175.5 0.7Q171.45 0.7 168-0.68 164.55-2.05 161.97-4.5 159.4-6.95 157.95-10.28 156.5-13.6 156.5-17.5L156.5-17.5Q156.5-21.4 157.95-24.73 159.4-28.05 161.97-30.5 164.55-32.95 168-34.33 171.45-35.7 175.5-35.7L175.5-35.7Q177.15-35.7 179.2-35.45 181.25-35.2 183.2-34.77 185.15-34.35 186.5-33.8L186.5-33.8 186.25-31 185.95-31Q184.1-32.7 181.3-33.6 178.5-34.5 175.5-34.5L175.5-34.5Q171-34.5 167.57-32.38 164.15-30.25 162.22-26.43 160.3-22.6 160.3-17.5L160.3-17.5Q160.3-12.35 162.22-8.55 164.15-4.75 167.55-2.63 170.95-0.5 175.5-0.5L175.5-0.5Q178.9-0.5 181.82-1.6 184.75-2.7 186.6-4.3L186.6-4.3ZM194.44-17.5L194.44-17.5Q194.44-21.35 195.82-24.68 197.19-28 199.67-30.48 202.14-32.95 205.47-34.33 208.79-35.7 212.64-35.7L212.64-35.7Q216.49-35.7 219.82-34.33 223.14-32.95 225.62-30.48 228.09-28 229.47-24.68 230.84-21.35 230.84-17.5L230.84-17.5Q230.84-13.65 229.47-10.33 228.09-7 225.62-4.53 223.14-2.05 219.82-0.68 216.49 0.7 212.64 0.7L212.64 0.7Q208.79 0.7 205.47-0.68 202.14-2.05 199.67-4.53 197.19-7 195.82-10.33 194.44-13.65 194.44-17.5ZM198.24-17.5L198.24-17.5Q198.24-12.4 200.04-8.58 201.84-4.75 205.09-2.63 208.34-0.5 212.64-0.5L212.64-0.5Q216.94-0.5 220.19-2.63 223.44-4.75 225.24-8.6 227.04-12.45 227.04-17.5L227.04-17.5Q227.04-22.55 225.24-26.38 223.44-30.2 220.19-32.35 216.94-34.5 212.64-34.5L212.64-34.5Q208.34-34.5 205.12-32.38 201.89-30.25 200.07-26.43 198.24-22.6 198.24-17.5ZM245.04 0L241.64 0 242.89-35.7 243.49-35.7 268.64-5.3 268.94-5.3 267.84-35 271.24-35 269.99 0.7 269.39 0.7 244.24-29.7 243.94-29.7 245.04 0ZM282.04-17.5L282.04-17.5Q282.04-21.35 283.42-24.68 284.79-28 287.27-30.48 289.74-32.95 293.07-34.33 296.39-35.7 300.24-35.7L300.24-35.7Q304.09-35.7 307.42-34.33 310.74-32.95 313.22-30.48 315.69-28 317.07-24.68 318.44-21.35 318.44-17.5L318.44-17.5Q318.44-13.65 317.07-10.33 315.69-7 313.22-4.53 310.74-2.05 307.42-0.68 304.09 0.7 300.24 0.7L300.24 0.7Q296.39 0.7 293.07-0.68 289.74-2.05 287.27-4.53 284.79-7 283.42-10.33 282.04-13.65 282.04-17.5ZM285.84-17.5L285.84-17.5Q285.84-12.4 287.64-8.58 289.44-4.75 292.69-2.63 295.94-0.5 300.24-0.5L300.24-0.5Q304.54-0.5 307.79-2.63 311.04-4.75 312.84-8.6 314.64-12.45 314.64-17.5L314.64-17.5Q314.64-22.55 312.84-26.38 311.04-30.2 307.79-32.35 304.54-34.5 300.24-34.5L300.24-34.5Q295.94-34.5 292.72-32.38 289.49-30.25 287.67-26.43 285.84-22.6 285.84-17.5ZM359.34-35L362.94-35 362.94 0 359.54 0 359.54-32.1 359.24-32.1 347.14-8.9 345.59-8.9 331.84-29.35 331.54-29.35 332.64 0 329.24 0 330.49-35.7 331.49-35.7 347.24-12.3 347.54-12.3 359.34-35ZM380.39 0L376.99 0 376.99-35 380.39-35 380.39 0ZM422.04-4.3L422.34-4.3 422.04-1.25Q420.64-0.65 418.64-0.2 416.64 0.25 414.59 0.48 412.54 0.7 410.94 0.7L410.94 0.7Q406.89 0.7 403.44-0.68 399.99-2.05 397.41-4.5 394.84-6.95 393.39-10.28 391.94-13.6 391.94-17.5L391.94-17.5Q391.94-21.4 393.39-24.73 394.84-28.05 397.41-30.5 399.99-32.95 403.44-34.33 406.89-35.7 410.94-35.7L410.94-35.7Q412.59-35.7 414.64-35.45 416.69-35.2 418.64-34.77 420.59-34.35 421.94-33.8L421.94-33.8 421.69-31 421.39-31Q419.54-32.7 416.74-33.6 413.94-34.5 410.94-34.5L410.94-34.5Q406.44-34.5 403.01-32.38 399.59-30.25 397.66-26.43 395.74-22.6 395.74-17.5L395.74-17.5Q395.74-12.35 397.66-8.55 399.59-4.75 402.99-2.63 406.39-0.5 410.94-0.5L410.94-0.5Q414.34-0.5 417.26-1.6 420.19-2.7 422.04-4.3L422.04-4.3ZM430.34-1.1L430.34-1.1 430.64-4.1 430.94-4.1Q432.89-2.4 435.34-1.45 437.79-0.5 440.19-0.5L440.19-0.5Q443.59-0.5 445.69-2.38 447.79-4.25 447.79-7.4L447.79-7.4Q447.79-9.15 447.01-10.65 446.24-12.15 444.46-13.7 442.69-15.25 439.59-17.05L439.59-17.05Q437.44-18.3 435.49-19.68 433.54-21.05 432.29-22.88 431.04-24.7 431.04-27.25L431.04-27.25Q431.04-31.05 433.79-33.38 436.54-35.7 441.04-35.7L441.04-35.7Q443.04-35.7 445.34-35.27 447.64-34.85 448.89-34.2L448.89-34.2 448.64-31.4 448.34-31.4Q445.49-34.5 441.04-34.5L441.04-34.5Q437.84-34.5 435.89-32.88 433.94-31.25 433.94-28.5L433.94-28.5Q433.94-26.45 435.01-24.98 436.09-23.5 437.79-22.33 439.49-21.15 441.44-20.05L441.44-20.05Q443.69-18.75 445.81-17.3 447.94-15.85 449.31-13.83 450.69-11.8 450.69-8.75L450.69-8.75Q450.69-5.95 449.39-3.83 448.09-1.7 445.71-0.5 443.34 0.7 440.19 0.7L440.19 0.7Q438.19 0.7 435.49 0.2 432.79-0.3 430.34-1.1ZM479.54 0L476.14 0 476.14-35 482.39-35Q488.44-35 491.79-32.43 495.14-29.85 495.14-25.25L495.14-25.25Q495.14-20.65 491.79-18.07 488.44-15.5 482.39-15.5L482.39-15.5 479.54-15.5 479.54 0ZM482.39-33.8L482.39-33.8 479.54-33.8 479.54-16.7 482.39-16.7Q491.54-16.7 491.54-25.25L491.54-25.25Q491.54-33.8 482.39-33.8ZM503.19-17.5L503.19-17.5Q503.19-21.35 504.56-24.68 505.94-28 508.41-30.48 510.89-32.95 514.21-34.33 517.54-35.7 521.39-35.7L521.39-35.7Q525.24-35.7 528.56-34.33 531.89-32.95 534.36-30.48 536.84-28 538.21-24.68 539.59-21.35 539.59-17.5L539.59-17.5Q539.59-13.65 538.21-10.33 536.84-7 534.36-4.53 531.89-2.05 528.56-0.68 525.24 0.7 521.39 0.7L521.39 0.7Q517.54 0.7 514.21-0.68 510.89-2.05 508.41-4.53 505.94-7 504.56-10.33 503.19-13.65 503.19-17.5ZM506.99-17.5L506.99-17.5Q506.99-12.4 508.79-8.58 510.59-4.75 513.84-2.63 517.09-0.5 521.39-0.5L521.39-0.5Q525.69-0.5 528.94-2.63 532.19-4.75 533.99-8.6 535.79-12.45 535.79-17.5L535.79-17.5Q535.79-22.55 533.99-26.38 532.19-30.2 528.94-32.35 525.69-34.5 521.39-34.5L521.39-34.5Q517.09-34.5 513.86-32.38 510.64-30.25 508.81-26.43 506.99-22.6 506.99-17.5ZM551.13 0L551.13-35 554.53-35 554.53-1Q555.48-1 557.53-1.3L557.53-1.3 565.83-2.55 565.83 0 551.13 0ZM578.63 0L575.23 0 575.23-35 578.63-35 578.63 0ZM620.28-4.3L620.58-4.3 620.28-1.25Q618.88-0.65 616.88-0.2 614.88 0.25 612.83 0.48 610.78 0.7 609.18 0.7L609.18 0.7Q605.13 0.7 601.68-0.68 598.23-2.05 595.66-4.5 593.08-6.95 591.63-10.28 590.18-13.6 590.18-17.5L590.18-17.5Q590.18-21.4 591.63-24.73 593.08-28.05 595.66-30.5 598.23-32.95 601.68-34.33 605.13-35.7 609.18-35.7L609.18-35.7Q610.83-35.7 612.88-35.45 614.93-35.2 616.88-34.77 618.83-34.35 620.18-33.8L620.18-33.8 619.93-31 619.63-31Q617.78-32.7 614.98-33.6 612.18-34.5 609.18-34.5L609.18-34.5Q604.68-34.5 601.26-32.38 597.83-30.25 595.91-26.43 593.98-22.6 593.98-17.5L593.98-17.5Q593.98-12.35 595.91-8.55 597.83-4.75 601.23-2.63 604.63-0.5 609.18-0.5L609.18-0.5Q612.58-0.5 615.51-1.6 618.43-2.7 620.28-4.3L620.28-4.3ZM642.73 0L639.13 0 639.13-14.8 626.73-35 630.53-35 641.68-16.7 641.98-16.7 650.88-35 654.68-35 642.73-15.5 642.73 0Z" opacity="1" transform="matrix(1,0,0,1,0,0)" fill="#ffffff" class="slogan-text-1" data-fill-palette-color="quaternary" id="text-1"></path></svg></g></svg></g></svg></g></svg></g><g></g></svg></g></svg></g></svg></g></svg></g><defs></defs></svg><rect width="342.85155851775386" height="342.85155851775386" fill="none" stroke="none" visibility="hidden"></rect></g></svg></g></svg>